
          <svg xmlns="http://www.w3.org/2000/svg" xmlns:cc="http://creativecommons.org/ns#" xmlns:rdf="http://www.w3.org/1999/02/22-rdf-syntax-ns#" version="1.1" width="1710.8333740234375" height="173">
            <defs>
              <style type="text/css">svg {
          background-color: #fff; }
        
        .root text,
        .root tspan {
          font: 12px Arial; }
        
        .root path {
          fill-opacity: 0;
          stroke-width: 2px;
          stroke: #000; }
        
        .root circle {
          fill: #6b6659;
          stroke-width: 2px;
          stroke: #000; }
        
        .anchor text, .any-character text {
          fill: #fff; }
        
        .anchor rect, .any-character rect {
          fill: #6b6659; }
        
        .escape text, .charset-escape text, .literal text {
          fill: #000; }
        
        .escape rect, .charset-escape rect {
          fill: #bada55; }
        
        .literal rect {
          fill: #dae9e5; }
        
        .charset .charset-box {
          fill: #cbcbba; }
        
        .subexp .subexp-label tspan,
        .charset .charset-label tspan,
        .match-fragment .repeat-label tspan {
          font-size: 10px; }
        
        .repeat-label {
          cursor: help; }
        
        .subexp .subexp-label tspan,
        .charset .charset-label tspan {
          dominant-baseline: text-after-edge; }
        
        .subexp .subexp-box {
          stroke: #908c83;
          stroke-dasharray: 6,2;
          stroke-width: 2px;
          fill-opacity: 0; }
        
        .quote {
          fill: #908c83; }
        </style>
            </defs>
            <metadata>
              <rdf:rdf>
                <cc:license rdf:about="http://creativecommons.org/licenses/by/3.0/">
                  <cc:permits rdf:resource="http://creativecommons.org/ns#Reproduction"></cc:permits>
                  <cc:permits rdf:resource="http://creativecommons.org/ns#Distribution"></cc:permits>
                  <cc:requires rdf:resource="http://creativecommons.org/ns#Notice"></cc:requires>
                  <cc:requires rdf:resource="http://creativecommons.org/ns#Attribution"></cc:requires>
                  <cc:permits rdf:resource="http://creativecommons.org/ns#DerivativeWorks"></cc:permits>
                </cc:license>
              </rdf:rdf>
            </metadata>
          <desc>Created with Snap</desc><g class="root" transform="matrix(1,0,0,1,15,10)"><g class="regexp match" transform="matrix(1,0,0,1,10,0)"><path d="M54.33333206176758,82.5H63.833299999999994M140.66666639404298,82.5H151.1667M246.1667,82.5H256.1667M290.50003587646484,82.5H300M378.8333282470703,82.5H403.8334M482.6667282470703,82.5H507.6667M586.5000282470703,82.5H597M692,82.5H702M758.3333320617676,82.5H767.8334M846.6667282470703,82.5H857.1667M952.1667,82.5H962.1667M1024.5000320617676,82.5H1034M1110.833366394043,82.5H1135.8334M1214.6667282470703,82.5H1240.1667M1335.1667,82.5H1345.1667M1407.5000320617676,82.5H1417M1495.8333282470703,82.5H1520.8334M1599.6667282470703,82.5H1624.6667"></path><g class="match-fragment literal" transform="matrix(1,0,0,1,0,70.5)"><g class="label"><rect width="54.33333206176758" height="24" rx="3" ry="3"></rect><text x="0" y="0" transform="matrix(1,0,0,1,5,17)"><tspan class="quote">“</tspan><tspan>DIGIT   </tspan><tspan class="quote">”</tspan></text></g></g><g class="match-fragment charset" transform="matrix(1,0,0,1,64.3333,53.5)"><rect class="charset-box" rx="3" ry="3" transform="matrix(1,0,0,1,0,12)" width="76.33336639404297" height="34"></rect><text x="0" y="0" class="charset-label" transform="matrix(1,0,0,1,0,12)"><tspan>One of:</tspan></text><g transform="matrix(1,0,0,1,5,17)"><g class="charset-range" transform="matrix(1,0,0,1,0,0)"><text x="0" y="0" transform="matrix(1,0,0,1,30.6667,16)">-</text><g class="literal" transform="matrix(1,0,0,1,0,0)"><g class="label"><rect width="25.666666984558105" height="24" rx="3" ry="3"></rect><text x="0" y="0" transform="matrix(1,0,0,1,5,17)"><tspan class="quote">“</tspan><tspan>0</tspan><tspan class="quote">”</tspan></text></g></g><g class="literal" transform="matrix(1,0,0,1,40.6667,0)"><g class="label"><rect width="25.666666984558105" height="24" rx="3" ry="3"></rect><text x="0" y="0" transform="matrix(1,0,0,1,5,17)"><tspan class="quote">“</tspan><tspan>9</tspan><tspan class="quote">”</tspan></text></g></g></g></g></g><g class="match-fragment escape" transform="matrix(1,0,0,1,151.1667,70.5)"><g class="label"><rect width="95" height="24" rx="3" ry="3"></rect><text x="0" y="0" transform="matrix(1,0,0,1,5,17)"><tspan>line feed (0x0A)</tspan></text></g></g><g class="match-fragment literal" transform="matrix(1,0,0,1,256.1667,70.5)"><g class="label"><rect width="34.33333396911621" height="24" rx="3" ry="3"></rect><text x="0" y="0" transform="matrix(1,0,0,1,5,17)"><tspan class="quote">“</tspan><tspan>ID      </tspan><tspan class="quote">”</tspan></text></g></g><g class="match-fragment charset" transform="matrix(1,0,0,1,300.5,39)"><rect class="charset-box" rx="3" ry="3" transform="matrix(1,0,0,1,0,12)" width="78.33332824707031" height="63"></rect><text x="0" y="0" class="charset-label" transform="matrix(1,0,0,1,0,12)"><tspan>One of:</tspan></text><g transform="matrix(1,0,0,1,5,17)"><g class="charset-range" transform="matrix(1,0,0,1,1.3333,0)"><text x="0" y="0" transform="matrix(1,0,0,1,30.6667,16)">-</text><g class="literal" transform="matrix(1,0,0,1,0,0)"><g class="label"><rect width="25.666666984558105" height="24" rx="3" ry="3"></rect><text x="0" y="0" transform="matrix(1,0,0,1,5,17)"><tspan class="quote">“</tspan><tspan>a</tspan><tspan class="quote">”</tspan></text></g></g><g class="literal" transform="matrix(1,0,0,1,40.6667,0)"><g class="label"><rect width="25" height="24" rx="3" ry="3"></rect><text x="0" y="0" transform="matrix(1,0,0,1,5,17)"><tspan class="quote">“</tspan><tspan>z</tspan><tspan class="quote">”</tspan></text></g></g></g><g class="charset-range" transform="matrix(1,0,0,1,0,29)"><text x="0" y="0" transform="matrix(1,0,0,1,32,16)">-</text><g class="literal" transform="matrix(1,0,0,1,0,0)"><g class="label"><rect width="27" height="24" rx="3" ry="3"></rect><text x="0" y="0" transform="matrix(1,0,0,1,5,17)"><tspan class="quote">“</tspan><tspan>A</tspan><tspan class="quote">”</tspan></text></g></g><g class="literal" transform="matrix(1,0,0,1,42,0)"><g class="label"><rect width="26.333332061767578" height="24" rx="3" ry="3"></rect><text x="0" y="0" transform="matrix(1,0,0,1,5,17)"><tspan class="quote">“</tspan><tspan>Z</tspan><tspan class="quote">”</tspan></text></g></g></g></g></g><g class="match-fragment" transform="matrix(1,0,0,1,389.3334,0)"><path d="M0,82.5q10,0 10,-10v-62.5q0,-10 10,-10h68.83332824707031q10,0 10,10v62.5q0,10 10,10M14.5,82.5q-10,0 -10,10v50.5q0,10 10,10h78.83332824707031q10,0 10,-10v-50.5q0,-10 -10,-10M103.33332824707031,97.5l5,-5m-5,5l-5,-5"></path><g class="charset" transform="matrix(1,0,0,1,15,10)"><rect class="charset-box" rx="3" ry="3" transform="matrix(1,0,0,1,0,12)" width="78.33332824707031" height="121"></rect><text x="0" y="0" class="charset-label" transform="matrix(1,0,0,1,0,12)"><tspan>One of:</tspan></text><g transform="matrix(1,0,0,1,5,17)"><g class="charset-range" transform="matrix(1,0,0,1,1.3333,0)"><text x="0" y="0" transform="matrix(1,0,0,1,30.6667,16)">-</text><g class="literal" transform="matrix(1,0,0,1,0,0)"><g class="label"><rect width="25.666666984558105" height="24" rx="3" ry="3"></rect><text x="0" y="0" transform="matrix(1,0,0,1,5,17)"><tspan class="quote">“</tspan><tspan>a</tspan><tspan class="quote">”</tspan></text></g></g><g class="literal" transform="matrix(1,0,0,1,40.6667,0)"><g class="label"><rect width="25" height="24" rx="3" ry="3"></rect><text x="0" y="0" transform="matrix(1,0,0,1,5,17)"><tspan class="quote">“</tspan><tspan>z</tspan><tspan class="quote">”</tspan></text></g></g></g><g class="charset-range" transform="matrix(1,0,0,1,0,29)"><text x="0" y="0" transform="matrix(1,0,0,1,32,16)">-</text><g class="literal" transform="matrix(1,0,0,1,0,0)"><g class="label"><rect width="27" height="24" rx="3" ry="3"></rect><text x="0" y="0" transform="matrix(1,0,0,1,5,17)"><tspan class="quote">“</tspan><tspan>A</tspan><tspan class="quote">”</tspan></text></g></g><g class="literal" transform="matrix(1,0,0,1,42,0)"><g class="label"><rect width="26.333332061767578" height="24" rx="3" ry="3"></rect><text x="0" y="0" transform="matrix(1,0,0,1,5,17)"><tspan class="quote">“</tspan><tspan>Z</tspan><tspan class="quote">”</tspan></text></g></g></g><g class="charset-range" transform="matrix(1,0,0,1,1,58)"><text x="0" y="0" transform="matrix(1,0,0,1,30.6667,16)">-</text><g class="literal" transform="matrix(1,0,0,1,0,0)"><g class="label"><rect width="25.666666984558105" height="24" rx="3" ry="3"></rect><text x="0" y="0" transform="matrix(1,0,0,1,5,17)"><tspan class="quote">“</tspan><tspan>0</tspan><tspan class="quote">”</tspan></text></g></g><g class="literal" transform="matrix(1,0,0,1,40.6667,0)"><g class="label"><rect width="25.666666984558105" height="24" rx="3" ry="3"></rect><text x="0" y="0" transform="matrix(1,0,0,1,5,17)"><tspan class="quote">“</tspan><tspan>9</tspan><tspan class="quote">”</tspan></text></g></g></g><g class="literal" transform="matrix(1,0,0,1,21.3333,87)"><g class="label"><rect width="25.666666984558105" height="24" rx="3" ry="3"></rect><text x="0" y="0" transform="matrix(1,0,0,1,5,17)"><tspan class="quote">“</tspan><tspan>_</tspan><tspan class="quote">”</tspan></text></g></g></g></g></g><g class="match-fragment charset" transform="matrix(1,0,0,1,508.1667,24.5)"><rect class="charset-box" rx="3" ry="3" transform="matrix(1,0,0,1,0,12)" width="78.33332824707031" height="92"></rect><text x="0" y="0" class="charset-label" transform="matrix(1,0,0,1,0,12)"><tspan>One of:</tspan></text><g transform="matrix(1,0,0,1,5,17)"><g class="charset-range" transform="matrix(1,0,0,1,1.3333,0)"><text x="0" y="0" transform="matrix(1,0,0,1,30.6667,16)">-</text><g class="literal" transform="matrix(1,0,0,1,0,0)"><g class="label"><rect width="25.666666984558105" height="24" rx="3" ry="3"></rect><text x="0" y="0" transform="matrix(1,0,0,1,5,17)"><tspan class="quote">“</tspan><tspan>a</tspan><tspan class="quote">”</tspan></text></g></g><g class="literal" transform="matrix(1,0,0,1,40.6667,0)"><g class="label"><rect width="25" height="24" rx="3" ry="3"></rect><text x="0" y="0" transform="matrix(1,0,0,1,5,17)"><tspan class="quote">“</tspan><tspan>z</tspan><tspan class="quote">”</tspan></text></g></g></g><g class="charset-range" transform="matrix(1,0,0,1,0,29)"><text x="0" y="0" transform="matrix(1,0,0,1,32,16)">-</text><g class="literal" transform="matrix(1,0,0,1,0,0)"><g class="label"><rect width="27" height="24" rx="3" ry="3"></rect><text x="0" y="0" transform="matrix(1,0,0,1,5,17)"><tspan class="quote">“</tspan><tspan>A</tspan><tspan class="quote">”</tspan></text></g></g><g class="literal" transform="matrix(1,0,0,1,42,0)"><g class="label"><rect width="26.333332061767578" height="24" rx="3" ry="3"></rect><text x="0" y="0" transform="matrix(1,0,0,1,5,17)"><tspan class="quote">“</tspan><tspan>Z</tspan><tspan class="quote">”</tspan></text></g></g></g><g class="charset-range" transform="matrix(1,0,0,1,1,58)"><text x="0" y="0" transform="matrix(1,0,0,1,30.6667,16)">-</text><g class="literal" transform="matrix(1,0,0,1,0,0)"><g class="label"><rect width="25.666666984558105" height="24" rx="3" ry="3"></rect><text x="0" y="0" transform="matrix(1,0,0,1,5,17)"><tspan class="quote">“</tspan><tspan>0</tspan><tspan class="quote">”</tspan></text></g></g><g class="literal" transform="matrix(1,0,0,1,40.6667,0)"><g class="label"><rect width="25.666666984558105" height="24" rx="3" ry="3"></rect><text x="0" y="0" transform="matrix(1,0,0,1,5,17)"><tspan class="quote">“</tspan><tspan>9</tspan><tspan class="quote">”</tspan></text></g></g></g></g></g><g class="match-fragment escape" transform="matrix(1,0,0,1,597,70.5)"><g class="label"><rect width="95" height="24" rx="3" ry="3"></rect><text x="0" y="0" transform="matrix(1,0,0,1,5,17)"><tspan>line feed (0x0A)</tspan></text></g></g><g class="match-fragment literal" transform="matrix(1,0,0,1,702,70.5)"><g class="label"><rect width="56.33333206176758" height="24" rx="3" ry="3"></rect><text x="0" y="0" transform="matrix(1,0,0,1,5,17)"><tspan class="quote">“</tspan><tspan>CHAR    </tspan><tspan class="quote">”</tspan></text></g></g><g class="match-fragment charset" transform="matrix(1,0,0,1,768.3334,39)"><rect class="charset-box" rx="3" ry="3" transform="matrix(1,0,0,1,0,12)" width="78.33332824707031" height="63"></rect><text x="0" y="0" class="charset-label" transform="matrix(1,0,0,1,0,12)"><tspan>One of:</tspan></text><g transform="matrix(1,0,0,1,5,17)"><g class="charset-range" transform="matrix(1,0,0,1,1.3333,0)"><text x="0" y="0" transform="matrix(1,0,0,1,30.6667,16)">-</text><g class="literal" transform="matrix(1,0,0,1,0,0)"><g class="label"><rect width="25.666666984558105" height="24" rx="3" ry="3"></rect><text x="0" y="0" transform="matrix(1,0,0,1,5,17)"><tspan class="quote">“</tspan><tspan>a</tspan><tspan class="quote">”</tspan></text></g></g><g class="literal" transform="matrix(1,0,0,1,40.6667,0)"><g class="label"><rect width="25" height="24" rx="3" ry="3"></rect><text x="0" y="0" transform="matrix(1,0,0,1,5,17)"><tspan class="quote">“</tspan><tspan>z</tspan><tspan class="quote">”</tspan></text></g></g></g><g class="charset-range" transform="matrix(1,0,0,1,0,29)"><text x="0" y="0" transform="matrix(1,0,0,1,32,16)">-</text><g class="literal" transform="matrix(1,0,0,1,0,0)"><g class="label"><rect width="27" height="24" rx="3" ry="3"></rect><text x="0" y="0" transform="matrix(1,0,0,1,5,17)"><tspan class="quote">“</tspan><tspan>A</tspan><tspan class="quote">”</tspan></text></g></g><g class="literal" transform="matrix(1,0,0,1,42,0)"><g class="label"><rect width="26.333332061767578" height="24" rx="3" ry="3"></rect><text x="0" y="0" transform="matrix(1,0,0,1,5,17)"><tspan class="quote">“</tspan><tspan>Z</tspan><tspan class="quote">”</tspan></text></g></g></g></g></g><g class="match-fragment escape" transform="matrix(1,0,0,1,857.1667,70.5)"><g class="label"><rect width="95" height="24" rx="3" ry="3"></rect><text x="0" y="0" transform="matrix(1,0,0,1,5,17)"><tspan>line feed (0x0A)</tspan></text></g></g><g class="match-fragment literal" transform="matrix(1,0,0,1,962.1667,70.5)"><g class="label"><rect width="62.33333206176758" height="24" rx="3" ry="3"></rect><text x="0" y="0" transform="matrix(1,0,0,1,5,17)"><tspan class="quote">“</tspan><tspan>E_ID_1  </tspan><tspan class="quote">”</tspan></text></g></g><g class="match-fragment charset" transform="matrix(1,0,0,1,1034.5,39)"><rect class="charset-box" rx="3" ry="3" transform="matrix(1,0,0,1,0,12)" width="76.33336639404297" height="63"></rect><text x="0" y="0" class="charset-label" transform="matrix(1,0,0,1,0,12)"><tspan>One of:</tspan></text><g transform="matrix(1,0,0,1,5,17)"><g class="charset-range" transform="matrix(1,0,0,1,0,0)"><text x="0" y="0" transform="matrix(1,0,0,1,30.6667,16)">-</text><g class="literal" transform="matrix(1,0,0,1,0,0)"><g class="label"><rect width="25.666666984558105" height="24" rx="3" ry="3"></rect><text x="0" y="0" transform="matrix(1,0,0,1,5,17)"><tspan class="quote">“</tspan><tspan>0</tspan><tspan class="quote">”</tspan></text></g></g><g class="literal" transform="matrix(1,0,0,1,40.6667,0)"><g class="label"><rect width="25.666666984558105" height="24" rx="3" ry="3"></rect><text x="0" y="0" transform="matrix(1,0,0,1,5,17)"><tspan class="quote">“</tspan><tspan>9</tspan><tspan class="quote">”</tspan></text></g></g></g><g class="literal" transform="matrix(1,0,0,1,20.3333,29)"><g class="label"><rect width="25.666666984558105" height="24" rx="3" ry="3"></rect><text x="0" y="0" transform="matrix(1,0,0,1,5,17)"><tspan class="quote">“</tspan><tspan>_</tspan><tspan class="quote">”</tspan></text></g></g></g></g><g class="match-fragment" transform="matrix(1,0,0,1,1121.3334,0)"><path d="M0,82.5q10,0 10,-10v-62.5q0,-10 10,-10h68.83332824707031q10,0 10,10v62.5q0,10 10,10M14.5,82.5q-10,0 -10,10v50.5q0,10 10,10h78.83332824707031q10,0 10,-10v-50.5q0,-10 -10,-10M103.33332824707031,97.5l5,-5m-5,5l-5,-5"></path><g class="charset" transform="matrix(1,0,0,1,15,10)"><rect class="charset-box" rx="3" ry="3" transform="matrix(1,0,0,1,0,12)" width="78.33332824707031" height="121"></rect><text x="0" y="0" class="charset-label" transform="matrix(1,0,0,1,0,12)"><tspan>One of:</tspan></text><g transform="matrix(1,0,0,1,5,17)"><g class="charset-range" transform="matrix(1,0,0,1,1.3333,0)"><text x="0" y="0" transform="matrix(1,0,0,1,30.6667,16)">-</text><g class="literal" transform="matrix(1,0,0,1,0,0)"><g class="label"><rect width="25.666666984558105" height="24" rx="3" ry="3"></rect><text x="0" y="0" transform="matrix(1,0,0,1,5,17)"><tspan class="quote">“</tspan><tspan>a</tspan><tspan class="quote">”</tspan></text></g></g><g class="literal" transform="matrix(1,0,0,1,40.6667,0)"><g class="label"><rect width="25" height="24" rx="3" ry="3"></rect><text x="0" y="0" transform="matrix(1,0,0,1,5,17)"><tspan class="quote">“</tspan><tspan>z</tspan><tspan class="quote">”</tspan></text></g></g></g><g class="charset-range" transform="matrix(1,0,0,1,0,29)"><text x="0" y="0" transform="matrix(1,0,0,1,32,16)">-</text><g class="literal" transform="matrix(1,0,0,1,0,0)"><g class="label"><rect width="27" height="24" rx="3" ry="3"></rect><text x="0" y="0" transform="matrix(1,0,0,1,5,17)"><tspan class="quote">“</tspan><tspan>A</tspan><tspan class="quote">”</tspan></text></g></g><g class="literal" transform="matrix(1,0,0,1,42,0)"><g class="label"><rect width="26.333332061767578" height="24" rx="3" ry="3"></rect><text x="0" y="0" transform="matrix(1,0,0,1,5,17)"><tspan class="quote">“</tspan><tspan>Z</tspan><tspan class="quote">”</tspan></text></g></g></g><g class="charset-range" transform="matrix(1,0,0,1,1,58)"><text x="0" y="0" transform="matrix(1,0,0,1,30.6667,16)">-</text><g class="literal" transform="matrix(1,0,0,1,0,0)"><g class="label"><rect width="25.666666984558105" height="24" rx="3" ry="3"></rect><text x="0" y="0" transform="matrix(1,0,0,1,5,17)"><tspan class="quote">“</tspan><tspan>0</tspan><tspan class="quote">”</tspan></text></g></g><g class="literal" transform="matrix(1,0,0,1,40.6667,0)"><g class="label"><rect width="25.666666984558105" height="24" rx="3" ry="3"></rect><text x="0" y="0" transform="matrix(1,0,0,1,5,17)"><tspan class="quote">“</tspan><tspan>9</tspan><tspan class="quote">”</tspan></text></g></g></g><g class="literal" transform="matrix(1,0,0,1,21.3333,87)"><g class="label"><rect width="25.666666984558105" height="24" rx="3" ry="3"></rect><text x="0" y="0" transform="matrix(1,0,0,1,5,17)"><tspan class="quote">“</tspan><tspan>_</tspan><tspan class="quote">”</tspan></text></g></g></g></g></g><g class="match-fragment escape" transform="matrix(1,0,0,1,1240.1667,70.5)"><g class="label"><rect width="95" height="24" rx="3" ry="3"></rect><text x="0" y="0" transform="matrix(1,0,0,1,5,17)"><tspan>line feed (0x0A)</tspan></text></g></g><g class="match-fragment literal" transform="matrix(1,0,0,1,1345.1667,70.5)"><g class="label"><rect width="62.33333206176758" height="24" rx="3" ry="3"></rect><text x="0" y="0" transform="matrix(1,0,0,1,5,17)"><tspan class="quote">“</tspan><tspan>E_ID_2  </tspan><tspan class="quote">”</tspan></text></g></g><g class="match-fragment charset" transform="matrix(1,0,0,1,1417.5,39)"><rect class="charset-box" rx="3" ry="3" transform="matrix(1,0,0,1,0,12)" width="78.33332824707031" height="63"></rect><text x="0" y="0" class="charset-label" transform="matrix(1,0,0,1,0,12)"><tspan>One of:</tspan></text><g transform="matrix(1,0,0,1,5,17)"><g class="charset-range" transform="matrix(1,0,0,1,1.3333,0)"><text x="0" y="0" transform="matrix(1,0,0,1,30.6667,16)">-</text><g class="literal" transform="matrix(1,0,0,1,0,0)"><g class="label"><rect width="25.666666984558105" height="24" rx="3" ry="3"></rect><text x="0" y="0" transform="matrix(1,0,0,1,5,17)"><tspan class="quote">“</tspan><tspan>a</tspan><tspan class="quote">”</tspan></text></g></g><g class="literal" transform="matrix(1,0,0,1,40.6667,0)"><g class="label"><rect width="25" height="24" rx="3" ry="3"></rect><text x="0" y="0" transform="matrix(1,0,0,1,5,17)"><tspan class="quote">“</tspan><tspan>z</tspan><tspan class="quote">”</tspan></text></g></g></g><g class="charset-range" transform="matrix(1,0,0,1,0,29)"><text x="0" y="0" transform="matrix(1,0,0,1,32,16)">-</text><g class="literal" transform="matrix(1,0,0,1,0,0)"><g class="label"><rect width="27" height="24" rx="3" ry="3"></rect><text x="0" y="0" transform="matrix(1,0,0,1,5,17)"><tspan class="quote">“</tspan><tspan>A</tspan><tspan class="quote">”</tspan></text></g></g><g class="literal" transform="matrix(1,0,0,1,42,0)"><g class="label"><rect width="26.333332061767578" height="24" rx="3" ry="3"></rect><text x="0" y="0" transform="matrix(1,0,0,1,5,17)"><tspan class="quote">“</tspan><tspan>Z</tspan><tspan class="quote">”</tspan></text></g></g></g></g></g><g class="match-fragment" transform="matrix(1,0,0,1,1506.3334,0)"><path d="M0,82.5q10,0 10,-10v-62.5q0,-10 10,-10h68.83332824707031q10,0 10,10v62.5q0,10 10,10M14.5,82.5q-10,0 -10,10v50.5q0,10 10,10h78.83332824707031q10,0 10,-10v-50.5q0,-10 -10,-10M103.33332824707031,97.5l5,-5m-5,5l-5,-5"></path><g class="charset" transform="matrix(1,0,0,1,15,10)"><rect class="charset-box" rx="3" ry="3" transform="matrix(1,0,0,1,0,12)" width="78.33332824707031" height="121"></rect><text x="0" y="0" class="charset-label" transform="matrix(1,0,0,1,0,12)"><tspan>One of:</tspan></text><g transform="matrix(1,0,0,1,5,17)"><g class="charset-range" transform="matrix(1,0,0,1,1.3333,0)"><text x="0" y="0" transform="matrix(1,0,0,1,30.6667,16)">-</text><g class="literal" transform="matrix(1,0,0,1,0,0)"><g class="label"><rect width="25.666666984558105" height="24" rx="3" ry="3"></rect><text x="0" y="0" transform="matrix(1,0,0,1,5,17)"><tspan class="quote">“</tspan><tspan>a</tspan><tspan class="quote">”</tspan></text></g></g><g class="literal" transform="matrix(1,0,0,1,40.6667,0)"><g class="label"><rect width="25" height="24" rx="3" ry="3"></rect><text x="0" y="0" transform="matrix(1,0,0,1,5,17)"><tspan class="quote">“</tspan><tspan>z</tspan><tspan class="quote">”</tspan></text></g></g></g><g class="charset-range" transform="matrix(1,0,0,1,0,29)"><text x="0" y="0" transform="matrix(1,0,0,1,32,16)">-</text><g class="literal" transform="matrix(1,0,0,1,0,0)"><g class="label"><rect width="27" height="24" rx="3" ry="3"></rect><text x="0" y="0" transform="matrix(1,0,0,1,5,17)"><tspan class="quote">“</tspan><tspan>A</tspan><tspan class="quote">”</tspan></text></g></g><g class="literal" transform="matrix(1,0,0,1,42,0)"><g class="label"><rect width="26.333332061767578" height="24" rx="3" ry="3"></rect><text x="0" y="0" transform="matrix(1,0,0,1,5,17)"><tspan class="quote">“</tspan><tspan>Z</tspan><tspan class="quote">”</tspan></text></g></g></g><g class="charset-range" transform="matrix(1,0,0,1,1,58)"><text x="0" y="0" transform="matrix(1,0,0,1,30.6667,16)">-</text><g class="literal" transform="matrix(1,0,0,1,0,0)"><g class="label"><rect width="25.666666984558105" height="24" rx="3" ry="3"></rect><text x="0" y="0" transform="matrix(1,0,0,1,5,17)"><tspan class="quote">“</tspan><tspan>0</tspan><tspan class="quote">”</tspan></text></g></g><g class="literal" transform="matrix(1,0,0,1,40.6667,0)"><g class="label"><rect width="25.666666984558105" height="24" rx="3" ry="3"></rect><text x="0" y="0" transform="matrix(1,0,0,1,5,17)"><tspan class="quote">“</tspan><tspan>9</tspan><tspan class="quote">”</tspan></text></g></g></g><g class="literal" transform="matrix(1,0,0,1,21.3333,87)"><g class="label"><rect width="25.666666984558105" height="24" rx="3" ry="3"></rect><text x="0" y="0" transform="matrix(1,0,0,1,5,17)"><tspan class="quote">“</tspan><tspan>_</tspan><tspan class="quote">”</tspan></text></g></g></g></g></g><g class="match-fragment charset" transform="matrix(1,0,0,1,1625.1667,53.5)"><rect class="charset-box" rx="3" ry="3" transform="matrix(1,0,0,1,0,12)" width="35.66666793823242" height="34"></rect><text x="0" y="0" class="charset-label" transform="matrix(1,0,0,1,0,12)"><tspan>One of:</tspan></text><g transform="matrix(1,0,0,1,5,17)"><g class="literal" transform="matrix(1,0,0,1,0,0)"><g class="label"><rect width="25.666666984558105" height="24" rx="3" ry="3"></rect><text x="0" y="0" transform="matrix(1,0,0,1,5,17)"><tspan class="quote">“</tspan><tspan>_</tspan><tspan class="quote">”</tspan></text></g></g></g></g></g><path d="M10,82.5H0M1670.8333679382324,82.5H1680.8333740234375"></path><circle cx="0" cy="82.5" r="5"></circle><circle cx="1680.8333740234375" cy="82.5" r="5"></circle></g></svg>
        